<svg xmlns="http://www.w3.org/2000/svg" viewBox="0 0 64 64" fill="none">
  <defs>
    <linearGradient id="g" x1="6" y1="4" x2="58" y2="60" gradientUnits="userSpaceOnUse">
      <stop stop-color="#14B8A6"/>
      <stop offset="1" stop-color="#0F766E"/>
    </linearGradient>
  </defs>
  <rect width="64" height="64" rx="16" fill="url(#g)"/>
  <!-- wren: cocked tail, round body, small beak -->
  <path fill="#fff" d="M15 15c1.6 0 2.6 1.4 3 3.4.6 3 1.7 6.4 4.4 9.4C25 25 28.600 22 33 22c1.600 0 3 .4 4.200 1.100C38.300 19.800 41.100 17.500 44.600 17.500c4.200 0 7 3 7.400 6.600l4.200 2.100c.8.400.8 1.500 0 1.900l-4.400 1.700c-.7 5.700-3.200 10.200-7 13.200-3.400 2.700-7.600 4.100-12.200 4.100-5.600 0-10.400-2.100-13.400-6-2.300-3-3.200-6.800-2.500-10.800.4-2.500-.9-4.800-3.100-8.100C11.200 20 12 15 15 15Z"/>
  <!-- wing + eye -->
  <path d="M25.500 40c3.500-4.200 9-5.600 14-3.200" stroke="#0F766E" stroke-width="2.600" stroke-linecap="round"/>
  <circle cx="45.500" cy="24" r="1.700" fill="#0F766E"/>
</svg>
